<svg width="206" height="60" viewBox="0 0 206 60" fill="none" xmlns="http://www.w3.org/2000/svg">
<path opacity="0.1" d="M43.7412 60H15.5696C6.99209 60 0 52.9267 0 44.2495V15.7505C0 7.07334 6.99209 0 15.5696 0H43.7412C52.3187 0 59.3108 7.07334 59.3108 15.7505V44.2495C59.3108 52.9267 52.3187 60 43.7412 60Z" fill="url(#paint0_linear_15_10)"/>
<path d="M18.0493 10.6513L7.5205 49.2668C7.23594 50.2538 8.33353 51.0351 9.14657 50.4594L17.5208 44.8254C19.716 43.3449 21.3014 41.0831 21.9925 38.4923L27.2366 17.9302C27.3585 17.4779 27.765 17.1489 28.2122 17.1489H42.6842L41.3021 21.9193C40.6923 23.9755 38.863 25.4148 36.7491 25.4971L30.2448 25.6616C28.3748 25.7027 26.7487 26.9775 26.2609 28.8281L24.147 36.8062C23.4966 39.2325 24.5129 41.7411 26.5861 43.0982L39.2695 51.1174C40.611 51.981 42.4403 51.2819 42.8468 49.7191L50.1235 23.3586C50.1235 23.3586 55.5301 8.63621 38.619 8.63621H20.773C19.5127 8.55396 18.4152 9.41757 18.0493 10.6513Z" fill="url(#paint1_linear_15_10)"/>
<path d="M33.9033 22.6181C34.6442 22.6181 35.2448 22.0105 35.2448 21.261C35.2448 20.5115 34.6442 19.9039 33.9033 19.9039C33.1624 19.9039 32.5618 20.5115 32.5618 21.261C32.5618 22.0105 33.1624 22.6181 33.9033 22.6181Z" fill="url(#paint2_linear_15_10)"/>
<path d="M28.4566 17.1488C28.7818 17.1488 25.8142 17.1899 22.9686 17.2311C18.9441 17.3133 15.4887 20.0275 14.3911 23.9343L7.56164 49.2667C7.27708 50.2537 8.37467 51.035 9.18771 50.4593L17.562 44.8253C19.7571 43.3448 21.3426 41.083 22.0336 38.4922L27.1151 18.5059C27.1151 18.5059 27.1151 17.1488 28.4566 17.1488Z" fill="url(#paint3_linear_15_10)"/>
<path d="M93.8034 35.4476C93.101 35.6844 92.2426 35.7634 91.3061 35.7634C90.2916 35.7634 89.3551 35.6055 88.4966 35.2897C87.6382 34.9739 86.8578 34.1844 86.3115 33.0792L81.1608 23.0529C80.6926 22.1055 80.2243 21.1581 79.7561 20.2107C79.3659 19.2634 78.8977 18.2371 78.5074 17.2107L78.1953 17.2897C78.3514 19.1055 78.4294 20.7634 78.4294 22.4213C78.4294 24.0792 78.5074 25.5792 78.5074 27.1581V35.4476C78.1953 35.5265 77.8051 35.6055 77.1808 35.6844C76.6345 35.7634 76.0101 35.7634 75.3858 35.7634C74.0591 35.7634 73.1226 35.5265 72.5764 35.0528C72.0301 34.5792 71.796 33.7897 71.796 32.6055V9.55285C72.1862 9.07917 72.7324 8.68443 73.5129 8.36864C74.2933 8.05285 75.1517 7.97391 76.0101 7.97391C77.0247 7.97391 77.9612 8.1318 78.8977 8.44759C79.7561 8.76338 80.4585 9.47391 81.0828 10.6581L86.2335 20.6844C86.7017 21.6318 87.1699 22.5792 87.6382 23.5265C88.0284 24.4739 88.4966 25.5002 88.8868 26.5265L89.0429 26.4476C88.8868 24.4739 88.8088 22.5792 88.8088 20.7634C88.8088 18.9476 88.8088 17.2897 88.8088 15.6318V8.2897C89.121 8.21075 89.5112 8.1318 90.1355 8.05285C90.6037 7.97391 91.2281 7.89496 91.8524 7.89496C93.1791 7.89496 94.1156 8.1318 94.6618 8.60548C95.2081 9.07917 95.4422 9.86864 95.4422 11.0529V34.5792C95.052 34.895 94.5058 35.2107 93.8034 35.4476Z" fill="url(#paint4_linear_15_10)"/>
<path d="M109.568 13.2632C111.128 13.2632 112.455 13.4211 113.704 13.7369C114.952 14.0527 116.045 14.5264 116.903 15.158C117.762 15.7896 118.464 16.658 118.932 17.6843C119.401 18.7106 119.635 19.8948 119.635 21.2369V31.3422C119.635 32.1317 119.401 32.7632 119.01 33.158C118.62 33.6317 118.152 34.0264 117.606 34.3422C116.669 34.8948 115.577 35.3685 114.25 35.6053C112.923 35.9211 111.441 36.079 109.724 36.079C106.68 36.079 104.261 35.5264 102.466 34.3422C100.749 33.158 99.8906 31.4211 99.8906 28.9738C99.8906 26.9211 100.515 25.3422 101.685 24.3159C102.856 23.2106 104.729 22.579 107.226 22.3422L113.079 21.7106V21.2369C113.079 20.2896 112.689 19.579 111.909 19.1053C111.128 18.6317 110.036 18.4738 108.631 18.4738C107.539 18.4738 106.446 18.6317 105.353 18.8685C104.261 19.1053 103.324 19.4211 102.466 19.8159C102.076 19.579 101.842 19.1843 101.529 18.7106C101.295 18.2369 101.139 17.6843 101.139 17.1317C101.139 15.7896 101.842 14.9211 103.168 14.2896C104.027 13.9738 105.041 13.7369 106.134 13.579C107.382 13.3422 108.475 13.2632 109.568 13.2632ZM109.802 31.1053C110.426 31.1053 111.128 31.0264 111.753 30.8685C112.377 30.7106 112.845 30.5527 113.157 30.3159V26.2106L109.568 26.5264C108.631 26.6053 107.851 26.8422 107.304 27.158C106.758 27.4738 106.446 28.0264 106.446 28.7369C106.446 29.4475 106.68 30.0001 107.226 30.4738C107.773 30.8685 108.631 31.1053 109.802 31.1053Z" fill="url(#paint5_linear_15_10)"/>
<path d="M156.782 35.3685C156.47 35.4475 156.002 35.5264 155.533 35.6053C154.987 35.6843 154.441 35.6843 153.739 35.6843C152.412 35.6843 151.475 35.4475 150.851 35.0527C150.305 34.658 149.993 33.7896 149.993 32.5264V21.4738C149.993 20.5264 149.758 19.7369 149.212 19.3422C148.666 18.8685 147.964 18.6317 147.027 18.6317C146.403 18.6317 145.856 18.7106 145.388 18.9475C144.842 19.1843 144.374 19.4211 143.983 19.7369C143.983 19.8948 144.062 20.0527 144.062 20.2106C144.062 20.3685 144.062 20.5264 144.062 20.6843V35.4475C143.749 35.5264 143.281 35.6053 142.813 35.6843C142.267 35.7632 141.72 35.7632 141.018 35.7632C139.691 35.7632 138.755 35.5264 138.13 35.1317C137.584 34.7369 137.272 33.8685 137.272 32.6053V21.5527C137.272 20.6053 136.96 19.8159 136.414 19.4211C135.789 18.9475 135.087 18.7106 134.228 18.7106C133.604 18.7106 133.058 18.7896 132.512 19.0264C132.043 19.1843 131.575 19.4211 131.263 19.579V35.4475C130.951 35.5264 130.56 35.6053 130.014 35.6843C129.468 35.7632 128.922 35.7632 128.219 35.7632C126.893 35.7632 125.956 35.5264 125.332 35.1317C124.707 34.7369 124.473 33.8685 124.473 32.6053V18.7896C124.473 18.0001 124.629 17.3685 124.942 16.8948C125.254 16.4211 125.722 15.9475 126.346 15.5527C127.283 14.8422 128.531 14.2896 129.936 13.8948C131.341 13.5001 132.824 13.2632 134.384 13.2632C135.633 13.2632 136.804 13.4211 137.896 13.8159C138.989 14.1317 140.003 14.6843 140.94 15.3948C141.798 14.7632 142.813 14.2896 143.905 13.8948C144.998 13.5001 146.325 13.2632 147.885 13.2632C149.056 13.2632 150.149 13.4211 151.163 13.658C152.178 13.9738 153.114 14.3685 153.895 15.079C154.675 15.7106 155.299 16.579 155.846 17.6053C156.314 18.6317 156.548 19.8948 156.548 21.3159V35.3685H156.782Z" fill="url(#paint6_linear_15_10)"/>
<path d="M167.474 27.4742C167.864 28.7374 168.645 29.6058 169.659 30.1584C170.674 30.7111 171.844 30.9479 173.249 30.9479C174.498 30.9479 175.668 30.79 176.761 30.3953C177.853 30.0795 178.712 29.6848 179.414 29.29C179.882 29.6058 180.195 30.0005 180.507 30.4742C180.819 30.9479 180.975 31.5005 180.975 32.0532C180.975 32.7637 180.741 33.3163 180.351 33.869C179.96 34.3427 179.336 34.8163 178.634 35.1321C177.931 35.4479 177.073 35.7637 176.058 35.9216C175.044 36.0795 173.951 36.1584 172.781 36.1584C171.064 36.1584 169.425 35.9216 167.942 35.4479C166.459 34.9742 165.211 34.2637 164.118 33.2374C163.026 32.29 162.245 31.0269 161.621 29.6058C160.997 28.1848 160.684 26.4479 160.684 24.4742C160.684 22.5795 160.997 20.9216 161.621 19.5005C162.245 18.0795 163.026 16.9742 164.04 16.0269C165.055 15.0795 166.225 14.4479 167.552 13.9742C168.879 13.5795 170.205 13.3427 171.61 13.3427C173.093 13.3427 174.498 13.5795 175.746 14.0532C176.995 14.5269 178.087 15.1584 178.946 16.0269C179.882 16.8953 180.507 17.8427 181.053 19.0269C181.521 20.2111 181.833 21.4742 181.833 22.8163C181.833 23.7637 181.599 24.4742 181.053 24.9479C180.585 25.4216 179.882 25.7374 178.946 25.8953L167.474 27.4742ZM171.688 18.3163C170.44 18.3163 169.347 18.7111 168.567 19.5005C167.708 20.29 167.24 21.3953 167.084 22.8953L175.512 21.4742C175.434 20.6848 175.122 19.9742 174.498 19.2637C173.873 18.6321 172.937 18.3163 171.688 18.3163Z" fill="url(#paint7_linear_15_10)"/>
<path d="M189.091 30.0792C188.389 28.5792 187.609 26.6844 186.75 24.2371C185.892 21.8686 184.955 18.7107 184.019 14.9213C184.409 14.5265 184.877 14.2107 185.502 13.8949C186.126 13.5792 186.828 13.5002 187.531 13.5002C188.467 13.5002 189.248 13.7371 189.794 14.1318C190.418 14.5265 190.808 15.2371 191.199 16.3423C191.823 18.5528 192.525 20.6844 193.15 22.7371C193.774 24.8686 194.476 27.0002 195.179 29.1318H195.335C195.725 28.1055 196.037 27.0002 196.427 25.816C196.818 24.6318 197.208 23.3686 197.52 22.0265C197.832 20.6844 198.222 19.4213 198.534 18.0792C198.847 16.7371 199.081 15.4739 199.315 14.2107C200.251 13.7371 201.188 13.4213 202.202 13.4213C203.139 13.4213 203.919 13.6581 204.622 14.0528C205.324 14.4476 205.636 15.1581 205.636 16.1055C205.636 17.2107 205.48 18.5528 205.09 20.2107C204.7 21.8686 204.231 23.6055 203.607 25.4213C202.983 27.2371 202.358 28.9739 201.578 30.7897C200.798 32.5265 200.017 34.1055 199.237 35.4476C197.598 38.2897 196.115 40.4213 194.788 41.7634C193.462 43.1844 192.135 43.816 190.808 43.816C189.716 43.816 188.857 43.5002 188.077 42.7897C187.375 42.1581 186.906 41.2897 186.828 40.1844C187.765 39.316 188.779 38.3686 189.794 37.2634C190.808 36.1581 191.667 35.0528 192.369 33.8686C191.901 33.7107 191.355 33.3949 190.808 32.8423C190.34 32.4476 189.716 31.5002 189.091 30.0792Z" fill="url(#paint8_linear_15_10)"/>
<path d="M179.414 29.2899C178.789 29.6057 176.526 30.4742 175.512 30.711C174.497 30.8689 173.404 30.9478 172.312 30.8689C171.141 30.7899 170.049 30.3952 169.19 29.8426C168.878 29.6847 167.786 28.8952 167.473 27.5531C164.274 28.1847 162.791 30.4742 163.805 32.9215C164.664 33.711 165.757 34.4215 166.849 34.9742C168.176 35.5268 169.659 35.9215 171.219 36.0794C172.156 36.1584 173.17 36.1584 174.263 36.1584C175.355 36.0794 176.916 35.8426 177.853 35.4478C179.023 34.9742 179.414 34.8163 180.194 33.8689C180.896 33.0005 180.896 31.8163 180.662 31.1057C180.506 30.3952 179.804 29.6057 179.414 29.2899Z" fill="url(#paint9_linear_15_10)"/>
<path d="M170.674 22.2632C166.694 22.9737 167.475 27.4737 167.475 27.4737C167.475 27.4737 175.825 26.2105 178.791 25.8158C183.005 25.2632 182.224 20.3684 180.273 17.6053C180.976 20.0527 175.201 21.5527 175.201 21.5527C175.201 21.5527 174.654 21.5527 170.674 22.2632Z" fill="url(#paint10_linear_15_10)"/>
<path d="M78.1172 17.2893C75.3078 15.0788 71.796 16.5788 71.796 20.9999V32.6051C71.796 33.7893 72.0301 34.6578 72.5764 35.0525C73.1226 35.5262 74.0591 35.763 75.3858 35.763C76.0101 35.763 76.6345 35.763 77.1808 35.6841C77.727 35.6051 78.1953 35.5262 78.5074 35.4472V27.0788C78.5074 25.5788 78.5074 23.9999 78.4294 22.342C78.4294 20.842 78.2733 19.0262 78.1172 17.2893Z" fill="url(#paint11_linear_15_10)"/>
<path d="M89.0435 26.368C91.931 28.6575 95.5209 27.0785 95.5209 22.6575V11.1312C95.5209 9.94695 95.2868 9.07853 94.7405 8.68379C94.1942 8.21011 93.2577 7.97327 91.931 7.97327C91.3067 7.97327 90.6824 7.97327 90.1361 8.05221C89.5898 8.13116 89.1215 8.21011 88.8094 8.28906V16.5785C88.8094 18.0785 88.8094 19.6575 88.8874 21.3154C88.8874 22.8943 89.0435 24.5522 89.1996 26.2891C89.0435 26.2891 89.0435 26.368 89.0435 26.368Z" fill="url(#paint12_linear_15_10)"/>
<path d="M137.35 33.0793C137.194 37.0267 144.062 35.4477 144.062 35.4477C144.062 35.4477 144.14 27.0004 144.14 23.8425C144.14 18.6319 139.301 18.2372 135.477 18.7109C135.477 18.8688 137.35 19.1846 137.35 21.553C137.35 24.3951 137.428 30.3951 137.35 33.0793Z" fill="url(#paint13_linear_15_10)"/>
<path d="M149.994 33.0793C149.838 37.0267 156.705 35.4477 156.705 35.4477C156.705 35.4477 156.783 27.0004 156.783 23.8425C156.783 18.6319 151.945 18.2372 148.121 18.7109C148.121 18.8688 149.994 19.1846 149.994 21.553C149.916 24.3951 150.072 30.3951 149.994 33.0793Z" fill="url(#paint14_linear_15_10)"/>
<path d="M204.7 14.1314C203.997 13.7367 203.217 13.4998 202.281 13.4998C201.266 13.4998 200.33 13.7367 199.393 14.2893C199.159 15.5524 198.847 16.8156 198.613 18.1577C198.3 19.4998 197.988 20.763 197.598 22.1051C197.208 23.3682 196.896 24.6314 196.506 25.8946C196.115 26.9998 195.725 28.184 195.413 29.1314C196.115 33.0788 200.33 34.263 201.656 30.9472C202.359 29.1314 203.061 27.3946 203.685 25.5788C204.31 23.763 204.778 22.0261 205.168 20.3682C205.558 18.7103 205.714 17.3682 205.714 16.263C205.714 15.2367 205.402 14.6051 204.7 14.1314Z" fill="url(#paint15_linear_15_10)"/>
<path d="M102.467 19.7371C103.247 19.4214 104.184 19.1056 105.198 18.8687C106.213 18.6319 107.305 18.3161 108.398 18.3161C109.725 18.3161 110.817 18.474 111.598 18.7898C112.3 19.1056 113.393 19.7371 113.158 21.2371V21.5529H113.002C115.734 21.7898 120.26 20.2898 119.324 18.0792C118.933 17.0529 118.075 15.8687 117.217 15.2371C116.358 14.6056 115.5 14.1319 114.251 13.8161C113.002 13.5003 111.754 13.1845 110.271 13.1845C109.256 13.1845 108.086 13.1845 106.993 13.3424C105.901 13.5003 104.886 13.6582 104.028 13.974C103.325 14.2898 102.233 14.6845 101.921 15.1582C101.608 15.6319 101.296 16.4214 101.296 17.2108C101.296 17.7635 101.53 18.474 101.765 19.0266C101.921 19.5003 102.155 19.5003 102.467 19.7371Z" fill="url(#paint16_linear_15_10)"/>
<path d="M143.594 49.5792C143.282 49.5792 143.048 49.5002 142.892 49.4213C142.736 49.2634 142.658 49.1055 142.658 48.7897V41.3686C142.736 41.3686 142.814 41.2897 142.97 41.2897C143.126 41.2897 143.282 41.2108 143.438 41.2108C143.75 41.2108 143.985 41.2897 144.141 41.3686C144.297 41.4476 144.375 41.6844 144.375 42.0002V49.4213C144.297 49.4213 144.219 49.5002 144.063 49.5002C143.906 49.5792 143.75 49.5792 143.594 49.5792Z" fill="#492902"/>
<path d="M149.993 49.5791C149.681 49.5791 149.447 49.5001 149.291 49.4212C149.135 49.2633 149.057 49.1054 149.057 48.7896V41.6054C149.135 41.4475 149.291 41.3685 149.525 41.2896C149.759 41.2107 149.915 41.2107 150.149 41.2107C150.461 41.2107 150.695 41.2896 150.852 41.3686C151.086 41.4475 151.242 41.6843 151.398 41.9212L153.349 45.3949C153.505 45.7107 153.661 46.0264 153.895 46.4212C154.051 46.737 154.207 47.0528 154.363 47.3686H154.441C154.363 46.8159 154.363 46.3422 154.363 45.7896C154.363 45.3159 154.363 44.7633 154.363 44.2896V41.2107C154.441 41.2107 154.519 41.2107 154.675 41.1317C154.832 41.0528 154.988 41.1317 155.144 41.1317C155.456 41.1317 155.69 41.2107 155.846 41.2896C156.002 41.4475 156.08 41.6054 156.08 41.9212V49.1843C156.002 49.2633 155.846 49.3422 155.69 49.4212C155.534 49.5001 155.3 49.5001 155.066 49.5001C154.832 49.5001 154.519 49.4212 154.363 49.3422C154.207 49.2633 153.973 49.0264 153.817 48.7896L151.866 45.3159C151.71 45.0001 151.554 44.6843 151.32 44.2896C151.164 43.9738 151.008 43.5791 150.852 43.3422H150.773C150.852 43.8159 150.852 44.3685 150.852 44.8422C150.852 45.3949 150.852 45.8686 150.852 46.3422V49.4212C150.773 49.4212 150.695 49.5001 150.539 49.5001C150.305 49.5791 150.149 49.5791 149.993 49.5791Z" fill="#492902"/>
<path d="M167.864 45.3951C167.864 46.1056 167.786 46.7372 167.552 47.2898C167.318 47.8425 167.084 48.3162 166.694 48.632C166.304 48.9477 165.835 49.2635 165.289 49.4214C164.743 49.5793 164.118 49.6583 163.494 49.6583C163.338 49.6583 163.182 49.6583 163.026 49.6583C162.87 49.6583 162.636 49.6583 162.48 49.5793C162.323 49.5793 162.089 49.5004 161.933 49.5004C161.777 49.5004 161.543 49.4214 161.387 49.3425C160.997 49.1846 160.763 48.9477 160.763 48.553V41.9214C160.763 41.7635 160.841 41.6056 160.919 41.5267C160.997 41.4477 161.153 41.3688 161.309 41.2898C161.621 41.2109 162.011 41.132 162.401 41.053C162.792 41.053 163.182 40.9741 163.494 40.9741C164.196 40.9741 164.743 41.053 165.289 41.2109C165.835 41.3688 166.304 41.6846 166.694 42.0004C167.084 42.3162 167.396 42.7898 167.63 43.3425C167.708 44.053 167.864 44.6846 167.864 45.3951ZM166.069 45.3951C166.069 44.9214 165.991 44.5267 165.835 44.132C165.679 43.8162 165.523 43.5004 165.289 43.2635C165.055 43.0267 164.743 42.8688 164.431 42.7898C164.118 42.7109 163.728 42.632 163.338 42.632C163.104 42.632 162.948 42.632 162.792 42.632C162.636 42.632 162.48 42.632 162.323 42.7109V48.2372C162.48 48.2372 162.636 48.3162 162.87 48.3162C163.026 48.3162 163.26 48.3162 163.416 48.3162C164.274 48.3162 164.899 48.0793 165.367 47.6056C165.835 47.053 166.069 46.3425 166.069 45.3951Z" fill="#234BB0"/>
<path d="M173.015 49.5792C172.703 49.5792 172.469 49.5002 172.313 49.4213C172.157 49.2634 172.079 49.1055 172.079 48.7897V41.3686C172.157 41.3686 172.235 41.2897 172.391 41.2897C172.547 41.2897 172.703 41.2108 172.859 41.2108C173.171 41.2108 173.405 41.2897 173.561 41.3686C173.717 41.4476 173.795 41.6844 173.795 42.0002V49.4213C173.717 49.4213 173.639 49.5002 173.483 49.5002C173.405 49.5792 173.249 49.5792 173.015 49.5792Z" fill="#39B54A"/>
<path d="M183.082 47.6055H180.117C180.039 47.9213 179.883 48.316 179.804 48.6318C179.726 49.0265 179.57 49.2634 179.57 49.5002C179.492 49.5002 179.414 49.5792 179.258 49.5792C179.18 49.5792 179.024 49.6581 178.868 49.6581C178.556 49.6581 178.322 49.5792 178.166 49.5002C178.01 49.4213 177.932 49.1844 177.932 48.9476C177.932 48.8686 177.932 48.7108 178.01 48.6318C178.01 48.5529 178.088 48.395 178.088 48.2371C178.166 48.0002 178.244 47.6844 178.4 47.2897C178.556 46.895 178.634 46.5792 178.79 46.1055C178.946 45.7108 179.102 45.2371 179.258 44.8423C179.414 44.3686 179.57 43.9739 179.726 43.5792C179.883 43.1844 180.039 42.7897 180.117 42.395C180.273 42.0002 180.351 41.6844 180.507 41.4476C180.585 41.3686 180.819 41.2897 181.053 41.2897C181.287 41.2897 181.521 41.2108 181.756 41.2108C182.068 41.2108 182.38 41.2897 182.614 41.3686C182.848 41.4476 183.004 41.6055 183.082 41.8423C183.238 42.316 183.472 42.8686 183.707 43.5792C183.941 44.2108 184.097 44.9213 184.331 45.5529C184.565 46.2634 184.721 46.895 184.955 47.5265C185.189 48.1581 185.345 48.7897 185.501 49.2634C185.423 49.3423 185.267 49.4213 185.111 49.5002C184.955 49.5792 184.799 49.5792 184.565 49.5792C184.253 49.5792 184.019 49.5002 183.941 49.4213C183.785 49.3423 183.707 49.1055 183.628 48.8686L183.082 47.6055ZM181.599 42.7897C181.521 43.0265 181.443 43.2634 181.365 43.5792C181.287 43.895 181.209 44.1318 181.053 44.4476C180.897 44.7634 180.819 45.0792 180.741 45.395C180.663 45.7108 180.507 46.0265 180.429 46.3423H182.77L181.599 42.7897Z" fill="#39B54A"/>
<path d="M137.585 43.8155H73.0456C72.5773 43.8155 72.1871 43.4207 72.1871 42.947C72.1871 42.4734 72.5773 42.0786 73.0456 42.0786H137.585C138.053 42.0786 138.444 42.4734 138.444 42.947C138.444 43.4207 138.053 43.8155 137.585 43.8155Z" fill="#492902"/>
<path d="M137.585 46.8158H73.0456C72.5773 46.8158 72.1871 46.421 72.1871 45.9473C72.1871 45.4737 72.5773 45.0789 73.0456 45.0789H137.585C138.053 45.0789 138.444 45.4737 138.444 45.9473C138.444 46.421 138.053 46.8158 137.585 46.8158Z" fill="#EAEAEA"/>
<path d="M137.585 49.8162H73.0455C72.5773 49.8162 72.1871 49.4214 72.1871 48.9478C72.1871 48.4741 72.5773 48.0793 73.0455 48.0793H137.585C138.053 48.0793 138.443 48.4741 138.443 48.9478C138.443 49.4214 138.053 49.8162 137.585 49.8162Z" fill="#39B54A"/>
<defs>
<linearGradient id="paint0_linear_15_10" x1="18.3406" y1="70.8604" x2="41.2984" y2="-10.1548" gradientUnits="userSpaceOnUse">
<stop stop-color="#FFB100"/>
<stop offset="0.0739214" stop-color="#FDA900"/>
<stop offset="0.7016" stop-color="#EF6C00"/>
<stop offset="1" stop-color="#E95400"/>
</linearGradient>
<linearGradient id="paint1_linear_15_10" x1="7.51375" y1="30.009" x2="50.9852" y2="30.009" gradientUnits="userSpaceOnUse">
<stop stop-color="#FFB100"/>
<stop offset="0.0739214" stop-color="#FDA900"/>
<stop offset="0.7016" stop-color="#EF6C00"/>
<stop offset="1" stop-color="#E95400"/>
</linearGradient>
<linearGradient id="paint2_linear_15_10" x1="35.2469" y1="19.5554" x2="31.6308" y2="23.9904" gradientUnits="userSpaceOnUse">
<stop stop-color="#FFB100"/>
<stop offset="0.0739214" stop-color="#FDA900"/>
<stop offset="0.7016" stop-color="#EF6C00"/>
<stop offset="1" stop-color="#E95400"/>
</linearGradient>
<linearGradient id="paint3_linear_15_10" x1="11.389" y1="56.8753" x2="24.3992" y2="10.964" gradientUnits="userSpaceOnUse">
<stop stop-color="#FFB100"/>
<stop offset="0.0739214" stop-color="#FDA900"/>
<stop offset="0.7016" stop-color="#EF6C00"/>
<stop offset="1" stop-color="#E95400"/>
</linearGradient>
<linearGradient id="paint4_linear_15_10" x1="67.6446" y1="16.8194" x2="214.354" y2="61.5879" gradientUnits="userSpaceOnUse">
<stop stop-color="#FFB100"/>
<stop offset="0.0739214" stop-color="#FDA900"/>
<stop offset="0.7016" stop-color="#EF6C00"/>
<stop offset="1" stop-color="#E95400"/>
</linearGradient>
<linearGradient id="paint5_linear_15_10" x1="69.1078" y1="12.0244" x2="215.818" y2="56.7929" gradientUnits="userSpaceOnUse">
<stop stop-color="#FFB100"/>
<stop offset="0.0739214" stop-color="#FDA900"/>
<stop offset="0.7016" stop-color="#EF6C00"/>
<stop offset="1" stop-color="#E95400"/>
</linearGradient>
<linearGradient id="paint6_linear_15_10" x1="71.6776" y1="3.60253" x2="218.388" y2="48.3711" gradientUnits="userSpaceOnUse">
<stop stop-color="#FFB100"/>
<stop offset="0.0739214" stop-color="#FDA900"/>
<stop offset="0.7016" stop-color="#EF6C00"/>
<stop offset="1" stop-color="#E95400"/>
</linearGradient>
<linearGradient id="paint7_linear_15_10" x1="74.5339" y1="-5.75614" x2="221.244" y2="39.0123" gradientUnits="userSpaceOnUse">
<stop stop-color="#FFB100"/>
<stop offset="0.0739214" stop-color="#FDA900"/>
<stop offset="0.7016" stop-color="#EF6C00"/>
<stop offset="1" stop-color="#E95400"/>
</linearGradient>
<linearGradient id="paint8_linear_15_10" x1="75.5687" y1="-9.14663" x2="222.266" y2="35.618" gradientUnits="userSpaceOnUse">
<stop stop-color="#FFB100"/>
<stop offset="0.0739214" stop-color="#FDA900"/>
<stop offset="0.7016" stop-color="#EF6C00"/>
<stop offset="1" stop-color="#E95400"/>
</linearGradient>
<linearGradient id="paint9_linear_15_10" x1="181.881" y1="36.5068" x2="161.693" y2="26.5286" gradientUnits="userSpaceOnUse">
<stop stop-color="#FFB100"/>
<stop offset="0.0739214" stop-color="#FDA900"/>
<stop offset="0.7016" stop-color="#EF6C00"/>
<stop offset="1" stop-color="#E95400"/>
</linearGradient>
<linearGradient id="paint10_linear_15_10" x1="186.961" y1="23.0332" x2="159.353" y2="22.0862" gradientUnits="userSpaceOnUse">
<stop stop-color="#FFB100"/>
<stop offset="0.0739214" stop-color="#FDA900"/>
<stop offset="0.7016" stop-color="#EF6C00"/>
<stop offset="1" stop-color="#E95400"/>
</linearGradient>
<linearGradient id="paint11_linear_15_10" x1="75.0677" y1="43.4702" x2="75.196" y2="12.8945" gradientUnits="userSpaceOnUse">
<stop stop-color="#FFB100"/>
<stop offset="0.0739214" stop-color="#FDA900"/>
<stop offset="0.7016" stop-color="#EF6C00"/>
<stop offset="1" stop-color="#E95400"/>
</linearGradient>
<linearGradient id="paint12_linear_15_10" x1="92.1478" y1="0.227425" x2="92.0195" y2="30.8029" gradientUnits="userSpaceOnUse">
<stop stop-color="#FFB100"/>
<stop offset="0.0739214" stop-color="#FDA900"/>
<stop offset="0.7016" stop-color="#EF6C00"/>
<stop offset="1" stop-color="#E95400"/>
</linearGradient>
<linearGradient id="paint13_linear_15_10" x1="139.859" y1="39.1415" x2="139.809" y2="15.8658" gradientUnits="userSpaceOnUse">
<stop stop-color="#FFB100"/>
<stop offset="0.0739214" stop-color="#FDA900"/>
<stop offset="0.7016" stop-color="#EF6C00"/>
<stop offset="1" stop-color="#E95400"/>
</linearGradient>
<linearGradient id="paint14_linear_15_10" x1="152.479" y1="39.1415" x2="152.429" y2="15.8658" gradientUnits="userSpaceOnUse">
<stop stop-color="#FFB100"/>
<stop offset="0.0739214" stop-color="#FDA900"/>
<stop offset="0.7016" stop-color="#EF6C00"/>
<stop offset="1" stop-color="#E95400"/>
</linearGradient>
<linearGradient id="paint15_linear_15_10" x1="206.027" y1="8.14947" x2="192.596" y2="42.9894" gradientUnits="userSpaceOnUse">
<stop stop-color="#FFB100"/>
<stop offset="0.0739214" stop-color="#FDA900"/>
<stop offset="0.7016" stop-color="#EF6C00"/>
<stop offset="1" stop-color="#E95400"/>
</linearGradient>
<linearGradient id="paint16_linear_15_10" x1="101.231" y1="17.4666" x2="119.311" y2="17.4666" gradientUnits="userSpaceOnUse">
<stop stop-color="#FFB100"/>
<stop offset="0.0739214" stop-color="#FDA900"/>
<stop offset="0.7016" stop-color="#EF6C00"/>
<stop offset="1" stop-color="#E95400"/>
</linearGradient>
</defs>
</svg>
